<?xml version="1.0" encoding="UTF-8" standalone="no"?>
<!-- Generator: Adobe Illustrator 16.0.4, SVG Export Plug-In . SVG Version: 6.00 Build 0)  -->

<svg
   xmlns:dc="http://purl.org/dc/elements/1.1/"
   xmlns:cc="http://creativecommons.org/ns#"
   xmlns:rdf="http://www.w3.org/1999/02/22-rdf-syntax-ns#"
   xmlns:svg="http://www.w3.org/2000/svg"
   xmlns="http://www.w3.org/2000/svg"
   xmlns:sodipodi="http://sodipodi.sourceforge.net/DTD/sodipodi-0.dtd"
   xmlns:inkscape="http://www.inkscape.org/namespaces/inkscape"
   version="1.1"
   id="Layer_1"
   x="0px"
   y="0px"
   width="83.998001"
   height="83.999008"
   viewBox="0 0 83.998001 83.999008"
   enable-background="new 0 0 500 500"
   xml:space="preserve"
   sodipodi:docname="questionmark.svg"
   inkscape:version="0.92.1 r15371"><metadata
     id="metadata17"><rdf:RDF><cc:Work
         rdf:about=""><dc:format>image/svg+xml</dc:format><dc:type
           rdf:resource="http://purl.org/dc/dcmitype/StillImage" /><dc:title></dc:title></cc:Work></rdf:RDF></metadata><defs
     id="defs15" /><sodipodi:namedview
     pagecolor="#ffffff"
     bordercolor="#666666"
     borderopacity="1"
     objecttolerance="10"
     gridtolerance="10"
     guidetolerance="10"
     inkscape:pageopacity="0"
     inkscape:pageshadow="2"
     inkscape:window-width="1920"
     inkscape:window-height="1001"
     id="namedview13"
     showgrid="false"
     fit-margin-top="0"
     fit-margin-left="0"
     fit-margin-right="0"
     fit-margin-bottom="0"
     inkscape:zoom="1.616"
     inkscape:cx="20.519003"
     inkscape:cy="-86.28"
     inkscape:window-x="3831"
     inkscape:window-y="-9"
     inkscape:window-maximized="1"
     inkscape:current-layer="Layer_1" /><path
     d="M 41.865003,8.9323366e-6 C 18.930003,-0.01499107 0.01000324,18.864009 3.2419253e-6,41.774009 -0.00899676,65.177009 18.722003,84.002009 42.013003,83.999009 c 23.185,-0.003 41.988,-18.82 41.985,-42.013 -0.002,-23.233 -18.806,-41.97000007 -42.133,-41.9860000676634 z M 42.902003,69.837009 c -3.299,0.027 -5.461,-2.08 -5.474,-5.332 -0.014,-3.298 2.089,-5.447 5.347,-5.464 3.22,-0.017 5.461,2.198 5.462,5.396 10e-4,3.159 -2.188,5.375 -5.335,5.4 z m 12.91,-32.644 c -1.209,2.626 -3.042,4.78 -4.971,6.863 -1.687,1.822 -2.979,3.816 -3.573,6.273 -0.584,2.42 -3.066,3.882 -5.458,3.37 -2.205,-0.472 -3.502,-2.64 -3.185,-5.167 0.463,-3.685 2.492,-6.495 4.892,-9.143 2.326,-2.567 3.984,-5.44 3.5,-9.089 -0.124,-0.936 -0.336,-1.906 -0.739,-2.749 -1.062,-2.216 -3.772,-2.551 -5.337,-0.646 -0.645,0.785 -1.099,1.762 -1.484,2.714 -0.667,1.65 -1.924,2.258 -3.578,2.284 -1.199,0.019 -2.399,0.026 -3.598,-0.001 -2.296,-0.052 -3.059,-1.019 -2.647,-3.311 1.273,-7.108 6.19,-11.073 15.502,-11.072 1.893,0.015 5.314,0.775 8.059,3.398 3.987,3.812 5.081,10.924 2.617,16.276 z"
     id="path10"
     inkscape:connector-curvature="0"
     style="clip-rule:evenodd;fill:#a0a0a0;fill-rule:evenodd" /></svg>